<svg width="14" height="14" viewBox="0 0 14 14" fill="none" xmlns="http://www.w3.org/2000/svg">
<g clip-path="url(#clip0_452_1249)">
<path d="M12.8332 12.8332L11.6665 11.6665M6.70817 12.2498C7.43591 12.2498 8.15653 12.1065 8.82887 11.828C9.50122 11.5495 10.1121 11.1413 10.6267 10.6267C11.1413 10.1121 11.5495 9.50122 11.828 8.82887C12.1065 8.15653 12.2498 7.43591 12.2498 6.70817C12.2498 5.98043 12.1065 5.25981 11.828 4.58747C11.5495 3.91512 11.1413 3.30421 10.6267 2.78962C10.1121 2.27503 9.50122 1.86683 8.82887 1.58834C8.15653 1.30984 7.43591 1.1665 6.70817 1.1665C5.23843 1.1665 3.82888 1.75036 2.78962 2.78962C1.75036 3.82888 1.1665 5.23843 1.1665 6.70817C1.1665 8.17791 1.75036 9.58746 2.78962 10.6267C3.82888 11.666 5.23843 12.2498 6.70817 12.2498V12.2498Z" stroke="white" stroke-width="1.5" stroke-linecap="round" stroke-linejoin="round"/>
</g>
<defs>
<clipPath id="clip0_452_1249">
<rect width="14" height="14" fill="white"/>
</clipPath>
</defs>
</svg>
