<svg width="22" height="22" viewBox="0 0 22 22" fill="none" xmlns="http://www.w3.org/2000/svg">
<path d="M5.95839 20.1664H16.0417M8.70839 12.8331H13.2917M15.3084 17.3981H6.69173C6.30673 17.3981 5.87589 17.0956 5.74756 16.7289L1.95256 6.11392C1.41173 4.59225 2.04423 4.12475 3.34589 5.05975L6.92089 7.61725C7.51673 8.02975 8.19506 7.81892 8.45173 7.14975L10.0651 2.85059C10.5784 1.47559 11.4309 1.47559 11.9442 2.85059L13.5576 7.14975C13.8142 7.81892 14.4926 8.02975 15.0792 7.61725L18.4342 5.22475C19.8642 4.19809 20.5517 4.72059 19.9651 6.37975L16.2617 16.7473C16.1242 17.0956 15.6934 17.3981 15.3084 17.3981V17.3981Z" stroke="#FF8F65" stroke-width="1.5" stroke-linecap="round" stroke-linejoin="round"/>
</svg>
