<svg width="22" height="22" viewBox="0 0 22 22" fill="none" xmlns="http://www.w3.org/2000/svg">
<path d="M12.5858 3.21742L14.1991 6.44409C14.4191 6.89325 15.0058 7.32409 15.5008 7.40659L18.425 7.89242C20.295 8.20409 20.735 9.56075 19.3875 10.8991L17.1141 13.1724C16.7291 13.5574 16.5183 14.2999 16.6375 14.8316L17.2883 17.6458C17.8016 19.8733 16.6191 20.7349 14.6483 19.5708L11.9075 17.9483C11.4125 17.6549 10.5966 17.6549 10.0925 17.9483L7.35164 19.5708C5.38998 20.7349 4.19831 19.8641 4.71164 17.6458L5.36248 14.8316C5.48164 14.2999 5.27081 13.5574 4.88581 13.1724L2.61248 10.8991C1.27414 9.56075 1.70498 8.20409 3.57498 7.89242L6.49914 7.40659C6.98498 7.32409 7.57164 6.89325 7.79164 6.44409L9.40498 3.21742C10.285 1.46659 11.715 1.46659 12.5858 3.21742V3.21742Z" stroke="#FCB600" stroke-width="1.5" stroke-linecap="round" stroke-linejoin="round"/>
</svg>
