<svg width="1064" height="220" viewBox="0 0 1064 220" fill="none" xmlns="http://www.w3.org/2000/svg">
<path d="M2.12342e-07 4.9492H159V63.1492H109.5V214.949H49.5V63.1492H2.12342e-07V4.9492ZM350.559 188.249C329.159 209.249 302.859 219.749 271.659 219.749C240.459 219.749 214.059 209.249 192.459 188.249C171.059 166.849 160.359 140.749 160.359 109.949C160.359 78.9492 171.059 52.9492 192.459 31.9492C213.859 10.7492 240.259 0.149213 271.659 0.149213C303.059 0.149213 329.359 10.7492 350.559 31.9492C372.159 52.9492 382.959 78.9492 382.959 109.949C382.959 140.749 372.159 166.849 350.559 188.249ZM234.759 146.549C244.559 156.149 256.859 160.949 271.659 160.949C286.459 160.949 298.659 156.149 308.259 146.549C318.059 136.749 322.959 124.549 322.959 109.949C322.959 95.3492 318.059 83.2492 308.259 73.6492C298.659 63.8492 286.459 58.9492 271.659 58.9492C256.859 58.9492 244.559 63.8492 234.759 73.6492C225.159 83.2492 220.359 95.3492 220.359 109.949C220.359 124.349 225.159 136.549 234.759 146.549ZM588.157 188.249C566.757 209.249 540.457 219.749 509.257 219.749C478.057 219.749 451.657 209.249 430.057 188.249C408.657 166.849 397.957 140.749 397.957 109.949C397.957 78.9492 408.657 52.9492 430.057 31.9492C451.457 10.7492 477.857 0.149213 509.257 0.149213C540.657 0.149213 566.957 10.7492 588.157 31.9492C609.757 52.9492 620.557 78.9492 620.557 109.949C620.557 140.749 609.757 166.849 588.157 188.249ZM472.357 146.549C482.157 156.149 494.457 160.949 509.257 160.949C524.057 160.949 536.257 156.149 545.857 146.549C555.657 136.749 560.557 124.549 560.557 109.949C560.557 95.3492 555.657 83.2492 545.857 73.6492C536.257 63.8492 524.057 58.9492 509.257 58.9492C494.457 58.9492 482.157 63.8492 472.357 73.6492C462.757 83.2492 457.957 95.3492 457.957 109.949C457.957 124.349 462.757 136.549 472.357 146.549ZM821.438 214.949H756.938L749.738 187.949H689.138L681.938 214.949H617.437L684.338 4.9492H754.538L821.438 214.949ZM719.438 75.4492L702.038 139.949H736.838L719.438 75.4492ZM904.69 219.749C882.09 219.749 863.19 215.049 847.99 205.649C832.79 196.249 822.49 183.349 817.09 166.949L868.39 137.249C875.39 155.049 887.99 163.949 906.19 163.949C919.79 163.949 926.59 160.349 926.59 153.149C926.59 148.749 924.19 145.549 919.39 143.549C916.99 142.549 914.49 141.649 911.89 140.849C911.29 140.649 907.69 139.549 901.09 137.549L889.39 134.249C847.59 121.649 826.69 99.1492 826.69 66.7492C826.69 47.5492 833.59 31.6492 847.39 19.0492C861.59 6.44921 879.89 0.149213 902.29 0.149213C920.29 0.149213 936.29 4.44921 950.29 13.0492C964.29 21.4492 974.59 33.4492 981.19 49.0492L931.39 78.1492C925.59 63.3492 915.99 55.9492 902.59 55.9492C897.59 55.9492 893.69 57.0492 890.89 59.2492C888.09 61.2492 886.69 63.8492 886.69 67.0492C886.69 71.4492 888.99 74.8492 893.59 77.2492C897.99 79.4492 907.09 82.5492 920.89 86.5492C939.49 92.1492 954.39 98.8492 965.59 106.649C979.59 116.249 986.59 131.549 986.59 152.549C986.59 173.749 979.29 190.249 964.69 202.049C950.09 213.849 930.09 219.749 904.69 219.749ZM1053.02 209.549C1046.42 216.149 1038.32 219.449 1028.72 219.449C1019.12 219.449 1010.92 216.149 1004.12 209.549C997.519 202.749 994.219 194.549 994.219 184.949C994.219 175.349 997.519 167.249 1004.12 160.649C1010.92 153.849 1019.12 150.449 1028.72 150.449C1038.32 150.449 1046.42 153.849 1053.02 160.649C1059.82 167.249 1063.22 175.349 1063.22 184.949C1063.22 194.549 1059.82 202.749 1053.02 209.549Z" fill="#025F5D" fill-opacity="0.02"/>
</svg>
