<svg width="22" height="22" viewBox="0 0 22 22" fill="none" xmlns="http://www.w3.org/2000/svg">
<path d="M8.25004 20.1668H13.75C18.3334 20.1668 20.1667 18.3335 20.1667 13.7502V8.25016C20.1667 3.66683 18.3334 1.8335 13.75 1.8335H8.25004C3.66671 1.8335 1.83337 3.66683 1.83337 8.25016V13.7502C1.83337 18.3335 3.66671 20.1668 8.25004 20.1668Z" stroke="white" stroke-width="1.5" stroke-linecap="round" stroke-linejoin="round"/>
<path d="M11 14.2082C11.4213 14.2082 11.8385 14.1252 12.2277 13.964C12.617 13.8027 12.9707 13.5664 13.2686 13.2685C13.5665 12.9706 13.8028 12.6169 13.9641 12.2276C14.1253 11.8384 14.2083 11.4212 14.2083 10.9998C14.2083 10.5785 14.1253 10.1613 13.9641 9.77206C13.8028 9.38281 13.5665 9.02912 13.2686 8.7312C12.9707 8.43328 12.617 8.19696 12.2277 8.03572C11.8385 7.87449 11.4213 7.7915 11 7.7915C10.1491 7.7915 9.333 8.12952 8.73133 8.7312C8.12965 9.33288 7.79163 10.1489 7.79163 10.9998C7.79163 11.8507 8.12965 12.6668 8.73133 13.2685C9.333 13.8702 10.1491 14.2082 11 14.2082V14.2082Z" stroke="white" stroke-width="1.5" stroke-linecap="round" stroke-linejoin="round"/>
<path d="M16.1664 6.4165H16.1784" stroke="white" stroke-width="2" stroke-linecap="round" stroke-linejoin="round"/>
</svg>
