<svg width="20" height="20" viewBox="0 0 20 20" fill="none" xmlns="http://www.w3.org/2000/svg">
<path d="M2.84155 18.3332C2.84155 15.1082 6.04989 12.4998 9.99989 12.4998C10.7999 12.4998 11.5749 12.6082 12.2999 12.8082M9.99989 9.99984C11.105 9.99984 12.1648 9.56085 12.9462 8.77945C13.7276 7.99805 14.1666 6.93824 14.1666 5.83317C14.1666 4.7281 13.7276 3.66829 12.9462 2.88689C12.1648 2.10549 11.105 1.6665 9.99989 1.6665C8.89482 1.6665 7.83501 2.10549 7.05361 2.88689C6.27221 3.66829 5.83322 4.7281 5.83322 5.83317C5.83322 6.93824 6.27221 7.99805 7.05361 8.77945C7.83501 9.56085 8.89482 9.99984 9.99989 9.99984V9.99984Z" stroke="white" stroke-width="1.5" stroke-linecap="round" stroke-linejoin="round"/>
<path d="M18.3334 15.0001C18.3334 15.6251 18.1584 16.2168 17.8501 16.7168C17.6751 17.0168 17.4501 17.2835 17.1918 17.5001C16.6084 18.0251 15.8418 18.3335 15.0001 18.3335C14.4256 18.3347 13.8606 18.1862 13.3609 17.9027C12.8612 17.6193 12.4439 17.2105 12.1501 16.7168C11.8329 16.2005 11.6655 15.6061 11.6668 15.0001C11.6668 13.9501 12.1501 13.0085 12.9168 12.4001C13.4068 12.0074 13.9977 11.7611 14.6216 11.6896C15.2455 11.6182 15.8769 11.7244 16.443 11.9961C17.0091 12.2679 17.4869 12.694 17.8214 13.2255C18.1559 13.757 18.3334 14.3722 18.3334 15.0001V15.0001Z" stroke="white" stroke-width="1.5" stroke-miterlimit="10" stroke-linecap="round" stroke-linejoin="round"/>
<path d="M13.7 14.9998L14.525 15.8248L16.3 14.1831" stroke="white" stroke-width="1.5" stroke-linecap="round" stroke-linejoin="round"/>
</svg>
