<svg width="22" height="22" viewBox="0 0 22 22" fill="none" xmlns="http://www.w3.org/2000/svg">
<path d="M8.25004 20.1663H13.75C18.3334 20.1663 20.1667 18.333 20.1667 13.7497V8.24967C20.1667 3.66634 18.3334 1.83301 13.75 1.83301H8.25004C3.66671 1.83301 1.83337 3.66634 1.83337 8.24967V13.7497C1.83337 18.333 3.66671 20.1663 8.25004 20.1663Z" stroke="white" stroke-width="1.5" stroke-linecap="round" stroke-linejoin="round"/>
<path d="M11 14.2087C11.4213 14.2087 11.8385 14.1257 12.2277 13.9644C12.617 13.8032 12.9707 13.5669 13.2686 13.269C13.5665 12.971 13.8028 12.6174 13.9641 12.2281C14.1253 11.8388 14.2083 11.4216 14.2083 11.0003C14.2083 10.579 14.1253 10.1618 13.9641 9.77255C13.8028 9.3833 13.5665 9.02961 13.2686 8.73169C12.9707 8.43377 12.617 8.19745 12.2277 8.03621C11.8385 7.87498 11.4213 7.79199 11 7.79199C10.1491 7.79199 9.333 8.13001 8.73133 8.73169C8.12965 9.33337 7.79163 10.1494 7.79163 11.0003C7.79163 11.8512 8.12965 12.6673 8.73133 13.269C9.333 13.8706 10.1491 14.2087 11 14.2087V14.2087Z" stroke="white" stroke-width="1.5" stroke-linecap="round" stroke-linejoin="round"/>
<path d="M16.1664 6.41699H16.1784" stroke="white" stroke-width="2" stroke-linecap="round" stroke-linejoin="round"/>
</svg>
