<svg width="108" height="23" viewBox="0 0 108 23" fill="none" xmlns="http://www.w3.org/2000/svg">
<path d="M0.3 0.999999H16.2V6.82H11.25V22H5.25V6.82H0.3V0.999999ZM35.3559 19.33C33.2159 21.43 30.5859 22.48 27.4659 22.48C24.3459 22.48 21.7059 21.43 19.5459 19.33C17.4059 17.19 16.3359 14.58 16.3359 11.5C16.3359 8.4 17.4059 5.8 19.5459 3.7C21.6859 1.58 24.3259 0.519999 27.4659 0.519999C30.6059 0.519999 33.2359 1.58 35.3559 3.7C37.5159 5.8 38.5959 8.4 38.5959 11.5C38.5959 14.58 37.5159 17.19 35.3559 19.33ZM23.7759 15.16C24.7559 16.12 25.9859 16.6 27.4659 16.6C28.9459 16.6 30.1659 16.12 31.1259 15.16C32.1059 14.18 32.5959 12.96 32.5959 11.5C32.5959 10.04 32.1059 8.83 31.1259 7.87C30.1659 6.89 28.9459 6.4 27.4659 6.4C25.9859 6.4 24.7559 6.89 23.7759 7.87C22.8159 8.83 22.3359 10.04 22.3359 11.5C22.3359 12.94 22.8159 14.16 23.7759 15.16ZM59.1157 19.33C56.9757 21.43 54.3457 22.48 51.2257 22.48C48.1057 22.48 45.4657 21.43 43.3057 19.33C41.1657 17.19 40.0957 14.58 40.0957 11.5C40.0957 8.4 41.1657 5.8 43.3057 3.7C45.4457 1.58 48.0857 0.519999 51.2257 0.519999C54.3657 0.519999 56.9957 1.58 59.1157 3.7C61.2757 5.8 62.3557 8.4 62.3557 11.5C62.3557 14.58 61.2757 17.19 59.1157 19.33ZM47.5357 15.16C48.5157 16.12 49.7457 16.6 51.2257 16.6C52.7057 16.6 53.9257 16.12 54.8857 15.16C55.8657 14.18 56.3557 12.96 56.3557 11.5C56.3557 10.04 55.8657 8.83 54.8857 7.87C53.9257 6.89 52.7057 6.4 51.2257 6.4C49.7457 6.4 48.5157 6.89 47.5357 7.87C46.5757 8.83 46.0957 10.04 46.0957 11.5C46.0957 12.94 46.5757 14.16 47.5357 15.16ZM106.95 21.46C106.29 22.12 105.48 22.45 104.52 22.45C103.56 22.45 102.74 22.12 102.06 21.46C101.4 20.78 101.07 19.96 101.07 19C101.07 18.04 101.4 17.23 102.06 16.57C102.74 15.89 103.56 15.55 104.52 15.55C105.48 15.55 106.29 15.89 106.95 16.57C107.63 17.23 107.97 18.04 107.97 19C107.97 19.96 107.63 20.78 106.95 21.46Z" fill="white"/>
<path d="M83.2055 22H76.7555L76.0355 19.3H69.9755L69.2555 22H62.8055L69.4955 0.999999H76.5155L83.2055 22ZM73.0055 8.05L71.2655 14.5H74.7455L73.0055 8.05ZM91.5307 22.48C89.2707 22.48 87.3807 22.01 85.8607 21.07C84.3407 20.13 83.3107 18.84 82.7707 17.2L87.9007 14.23C88.6007 16.01 89.8607 16.9 91.6807 16.9C93.0407 16.9 93.7207 16.54 93.7207 15.82C93.7207 15.38 93.4807 15.06 93.0007 14.86C92.7607 14.76 92.5107 14.67 92.2507 14.59C92.1907 14.57 91.8307 14.46 91.1707 14.26L90.0007 13.93C85.8207 12.67 83.7307 10.42 83.7307 7.18C83.7307 5.26 84.4207 3.67 85.8007 2.41C87.2207 1.15 89.0507 0.519999 91.2907 0.519999C93.0907 0.519999 94.6907 0.949999 96.0907 1.81C97.4907 2.65 98.5207 3.85 99.1807 5.41L94.2007 8.32C93.6207 6.84 92.6607 6.1 91.3207 6.1C90.8207 6.1 90.4307 6.21 90.1507 6.43C89.8707 6.63 89.7307 6.89 89.7307 7.21C89.7307 7.65 89.9607 7.99 90.4207 8.23C90.8607 8.45 91.7707 8.76 93.1507 9.16C95.0107 9.72 96.5007 10.39 97.6207 11.17C99.0207 12.13 99.7207 13.66 99.7207 15.76C99.7207 17.88 98.9907 19.53 97.5307 20.71C96.0707 21.89 94.0707 22.48 91.5307 22.48Z" fill="#09C2BF"/>
</svg>
