<svg width="40" height="40" viewBox="0 0 40 40" fill="none" xmlns="http://www.w3.org/2000/svg">
<path d="M16.75 4.21648L6.7167 10.7665C3.50003 12.8665 3.50003 17.5665 6.7167 19.6665L16.75 26.2165C18.55 27.3998 21.5167 27.3998 23.3167 26.2165L33.3 19.6665C36.5 17.5665 36.5 12.8831 33.3 10.7831L23.3167 4.23315C21.5167 3.03315 18.55 3.03315 16.75 4.21648V4.21648Z" stroke="black" stroke-width="1.5" stroke-linecap="round" stroke-linejoin="round"/>
<path d="M9.38337 21.8L9.3667 29.6167C9.3667 31.7333 11 34 13 34.6667L18.3167 36.4333C19.2334 36.7333 20.75 36.7333 21.6834 36.4333L27 34.6667C29 34 30.6334 31.7333 30.6334 29.6167V21.8833M35.6667 25V15" stroke="black" stroke-width="1.5" stroke-linecap="round" stroke-linejoin="round"/>
</svg>
