<svg width="688" height="24" viewBox="0 0 688 24" fill="none" xmlns="http://www.w3.org/2000/svg">
<path d="M12 22C17.5 22 22 17.5 22 12C22 6.5 17.5 2 12 2C6.5 2 2 6.5 2 12C2 17.5 6.5 22 12 22Z" stroke="#02B0AE" stroke-width="1.5" stroke-linecap="round" stroke-linejoin="round"/>
<path d="M7.75 11.9999L10.58 14.8299L16.25 9.16992" stroke="#02B0AE" stroke-width="1.5" stroke-linecap="round" stroke-linejoin="round"/>
<path d="M341 22C346.5 22 351 17.5 351 12C351 6.5 346.5 2 341 2C335.5 2 331 6.5 331 12C331 17.5 335.5 22 341 22Z" stroke="#02B0AE" stroke-width="1.5" stroke-linecap="round" stroke-linejoin="round"/>
<path d="M336.75 11.9999L339.58 14.8299L345.25 9.16992" stroke="#02B0AE" stroke-width="1.5" stroke-linecap="round" stroke-linejoin="round"/>
<path d="M676 22C681.5 22 686 17.5 686 12C686 6.5 681.5 2 676 2C670.5 2 666 6.5 666 12C666 17.5 670.5 22 676 22Z" stroke="#02B0AE" stroke-width="1.5" stroke-linecap="round" stroke-linejoin="round"/>
<path d="M671.75 11.9999L674.58 14.8299L680.25 9.16992" stroke="#02B0AE" stroke-width="1.5" stroke-linecap="round" stroke-linejoin="round"/>
<line x1="37" y1="11.5" x2="310" y2="11.5" stroke="#09C2BF"/>
<line x1="372" y1="11.5" x2="645" y2="11.5" stroke="#09C2BF"/>
</svg>
