<svg width="20" height="20" viewBox="0 0 20 20" fill="none" xmlns="http://www.w3.org/2000/svg">
<path d="M11.9333 15.8915C11.9333 16.3998 11.6 17.0665 11.175 17.3248L9.99997 18.0831C8.9083 18.7581 7.39163 17.9998 7.39163 16.6498V12.1915C7.39163 11.5998 7.0583 10.8415 6.71663 10.4248L3.51663 7.05814C3.09163 6.63314 2.7583 5.88314 2.7583 5.3748V3.44147C2.7583 2.43314 3.51663 1.6748 4.44163 1.6748H15.5583C16.4833 1.6748 17.2416 2.43314 17.2416 3.35814V5.20814C17.2416 5.88314 16.8166 6.7248 16.4 7.14147" stroke="#141736" stroke-width="1.5" stroke-miterlimit="10" stroke-linecap="round" stroke-linejoin="round"/>
<path d="M16.5584 14.2664L15.7251 13.4331M13.3918 13.7664C14.099 13.7664 14.7773 13.4855 15.2774 12.9854C15.7775 12.4853 16.0584 11.807 16.0584 11.0998C16.0584 10.3925 15.7775 9.71425 15.2774 9.21415C14.7773 8.71406 14.099 8.43311 13.3918 8.43311C12.6845 8.43311 12.0062 8.71406 11.5061 9.21415C11.006 9.71425 10.7251 10.3925 10.7251 11.0998C10.7251 11.807 11.006 12.4853 11.5061 12.9854C12.0062 13.4855 12.6845 13.7664 13.3918 13.7664Z" stroke="#141736" stroke-width="1.5" stroke-linecap="round" stroke-linejoin="round"/>
</svg>
