<svg width="20" height="20" viewBox="0 0 20 20" fill="none" xmlns="http://www.w3.org/2000/svg">
<g clip-path="url(#clip0_452_1374)">
<path d="M9.16675 16.6665C11.1559 16.6665 13.0635 15.8763 14.47 14.4698C15.8766 13.0633 16.6667 11.1556 16.6667 9.1665C16.6667 7.17738 15.8766 5.26973 14.47 3.8632C13.0635 2.45668 11.1559 1.6665 9.16675 1.6665C7.17762 1.6665 5.26997 2.45668 3.86345 3.8632C2.45692 5.26973 1.66675 7.17738 1.66675 9.1665C1.66675 11.1556 2.45692 13.0633 3.86345 14.4698C5.26997 15.8763 7.17762 16.6665 9.16675 16.6665V16.6665ZM15.7751 17.2415C16.2167 18.5748 17.2251 18.7082 18.0001 17.5415C18.7084 16.4748 18.2417 15.5998 16.9584 15.5998C16.0084 15.5915 15.4751 16.3332 15.7751 17.2415V17.2415Z" stroke="black" stroke-width="1.5" stroke-linecap="round" stroke-linejoin="round"/>
</g>
<defs>
<clipPath id="clip0_452_1374">
<rect width="20" height="20" fill="white"/>
</clipPath>
</defs>
</svg>
