<svg width="35" height="35" viewBox="0 0 35 35" fill="none" xmlns="http://www.w3.org/2000/svg">
<rect width="35" height="35" rx="8" fill="#FFF4F0"/>
<g clip-path="url(#clip0_808_1253)">
<path d="M21.3337 14.6665H14.667V21.3332H21.3337V14.6665ZM12.167 26.3332C13.542 26.3332 14.667 25.2082 14.667 23.8332V21.3332H12.167C10.792 21.3332 9.66699 22.4582 9.66699 23.8332C9.66699 25.2082 10.792 26.3332 12.167 26.3332ZM12.167 14.6665H14.667V12.1665C14.667 10.7915 13.542 9.6665 12.167 9.6665C10.792 9.6665 9.66699 10.7915 9.66699 12.1665C9.66699 13.5415 10.792 14.6665 12.167 14.6665ZM21.3337 14.6665H23.8337C25.2087 14.6665 26.3337 13.5415 26.3337 12.1665C26.3337 10.7915 25.2087 9.6665 23.8337 9.6665C22.4587 9.6665 21.3337 10.7915 21.3337 12.1665V14.6665ZM23.8337 26.3332C25.2087 26.3332 26.3337 25.2082 26.3337 23.8332C26.3337 22.4582 25.2087 21.3332 23.8337 21.3332H21.3337V23.8332C21.3337 25.2082 22.4587 26.3332 23.8337 26.3332Z" stroke="#FF8F65" stroke-width="1.5" stroke-linecap="round" stroke-linejoin="round"/>
</g>
<defs>
<clipPath id="clip0_808_1253">
<rect width="20" height="20" fill="white" transform="translate(8 8)"/>
</clipPath>
</defs>
</svg>
