<svg width="35" height="35" viewBox="0 0 35 35" fill="none" xmlns="http://www.w3.org/2000/svg">
<rect width="35" height="35" rx="8" fill="#09C2BF" fill-opacity="0.1"/>
<path d="M18 10.6665V10.6748M18 14.4165V14.4248M18 17.7498V17.7582" stroke="#09C2BF" stroke-width="3" stroke-miterlimit="10" stroke-linecap="round" stroke-linejoin="round"/>
<path d="M18 21.0835V21.0918" stroke="#09C2BF" stroke-width="2" stroke-miterlimit="10" stroke-linecap="round" stroke-linejoin="round"/>
<path d="M18 24V24.0083" stroke="#09C2BF" stroke-width="1.5" stroke-miterlimit="10" stroke-linecap="round" stroke-linejoin="round"/>
<path d="M18 26.5V26.5083" stroke="#09C2BF" stroke-miterlimit="10" stroke-linecap="round" stroke-linejoin="round"/>
<path d="M10.917 14.4165V14.4248M25.0837 14.4165V14.4248" stroke="#09C2BF" stroke-width="3" stroke-miterlimit="10" stroke-linecap="round" stroke-linejoin="round"/>
<path d="M25.0837 17.75V17.7583M10.917 17.75V17.7583" stroke="#09C2BF" stroke-width="2" stroke-miterlimit="10" stroke-linecap="round" stroke-linejoin="round"/>
<path d="M25.083 20.25V20.2583" stroke="#09C2BF" stroke-width="1.5" stroke-miterlimit="10" stroke-linecap="round" stroke-linejoin="round"/>
<path d="M25.083 22.75V22.7583" stroke="#09C2BF" stroke-miterlimit="10" stroke-linecap="round" stroke-linejoin="round"/>
<path d="M10.917 20.25V20.2583" stroke="#09C2BF" stroke-width="1.5" stroke-miterlimit="10" stroke-linecap="round" stroke-linejoin="round"/>
<path d="M10.917 22.75V22.7583" stroke="#09C2BF" stroke-miterlimit="10" stroke-linecap="round" stroke-linejoin="round"/>
<path d="M14.4997 16.0835V16.0918M14.458 12.5835V12.5918M21.4997 16.0835V16.0918M21.5413 12.5835V12.5918" stroke="#09C2BF" stroke-width="3" stroke-miterlimit="10" stroke-linecap="round" stroke-linejoin="round"/>
<path d="M14.5 19.4165V19.4248" stroke="#09C2BF" stroke-width="2" stroke-miterlimit="10" stroke-linecap="round" stroke-linejoin="round"/>
<path d="M14.5 21.9165V21.9248" stroke="#09C2BF" stroke-width="1.5" stroke-miterlimit="10" stroke-linecap="round" stroke-linejoin="round"/>
<path d="M14.5 24.4165V24.4248" stroke="#09C2BF" stroke-miterlimit="10" stroke-linecap="round" stroke-linejoin="round"/>
<path d="M21.5 19.4165V19.4248" stroke="#09C2BF" stroke-width="2" stroke-miterlimit="10" stroke-linecap="round" stroke-linejoin="round"/>
<path d="M21.5 21.9165V21.9248" stroke="#09C2BF" stroke-width="1.5" stroke-miterlimit="10" stroke-linecap="round" stroke-linejoin="round"/>
<path d="M21.5 24.4165V24.4248" stroke="#09C2BF" stroke-miterlimit="10" stroke-linecap="round" stroke-linejoin="round"/>
</svg>
