<svg width="225" height="39" viewBox="0 0 225 39" fill="none" xmlns="http://www.w3.org/2000/svg">
<path d="M112.363 1.91757L112.388 1.41817L112.363 1.91757ZM223.973 37.1141C224.247 37.0776 224.439 36.8261 224.403 36.5524L223.807 32.0919C223.771 31.8182 223.519 31.6259 223.246 31.6624C222.972 31.6989 222.78 31.9504 222.816 32.2242L223.345 36.189L219.38 36.7181C219.107 36.7546 218.914 37.0061 218.951 37.2798C218.987 37.5536 219.239 37.7458 219.513 37.7093L223.973 37.1141ZM0.999997 36.4975C1.34166 36.8626 1.34163 36.8626 1.34161 36.8626C1.34161 36.8626 1.3416 36.8626 1.3416 36.8626C1.3416 36.8626 1.34163 36.8626 1.34169 36.8626C1.34179 36.8625 1.34199 36.8623 1.34228 36.862C1.34287 36.8615 1.34384 36.8606 1.34519 36.8593C1.34788 36.8568 1.35209 36.8529 1.35781 36.8476C1.36925 36.837 1.38673 36.8209 1.41025 36.7994C1.45729 36.7563 1.52845 36.6917 1.62357 36.6067C1.81382 36.4367 2.09991 36.185 2.48062 35.861C3.24203 35.213 4.38182 34.2757 5.89005 33.1233L5.28294 32.3287C3.75999 33.4923 2.60654 34.4407 1.83249 35.0995C1.44547 35.4289 1.15329 35.6858 0.957184 35.8611C0.859133 35.9487 0.7851 36.0159 0.735241 36.0616C0.710311 36.0844 0.691425 36.1018 0.678602 36.1136C0.67219 36.1196 0.667294 36.1241 0.663916 36.1273C0.662227 36.1288 0.660917 36.1301 0.659987 36.1309C0.659522 36.1314 0.659153 36.1317 0.658878 36.132C0.65874 36.1321 0.658627 36.1322 0.658536 36.1323C0.658492 36.1323 0.658442 36.1324 0.65842 36.1324C0.658376 36.1324 0.658338 36.1325 0.999997 36.4975ZM15.6854 26.3904C18.6811 24.5254 22.1304 22.5341 26.019 20.525L25.56 19.6365C21.6463 21.6586 18.1738 23.6632 15.1569 25.5415L15.6854 26.3904ZM36.7814 15.4705C40.2451 13.9991 43.9488 12.569 47.8864 11.226L47.5636 10.2796C43.602 11.6307 39.8756 13.0696 36.3904 14.5502L36.7814 15.4705ZM59.2784 7.79314C62.9839 6.81982 66.8544 5.93955 70.886 5.18037L70.7009 4.19764C66.6455 4.9613 62.7521 5.84679 59.0243 6.82594L59.2784 7.79314ZM82.6352 3.38894C86.4635 2.94006 90.415 2.60633 94.4873 2.40713L94.4384 1.40832C90.3432 1.60864 86.3691 1.94427 82.5188 2.39574L82.6352 3.38894ZM106.386 2.21975C108.346 2.2531 110.33 2.31823 112.339 2.41697L112.388 1.41817C110.369 1.3189 108.374 1.25343 106.403 1.21989L106.386 2.21975ZM112.339 2.41697C114.328 2.51477 116.294 2.6346 118.236 2.77512L118.309 1.77773C116.359 1.63665 114.385 1.51636 112.388 1.41817L112.339 2.41697ZM129.991 3.9027C134.001 4.38306 137.896 4.94863 141.672 5.58574L141.838 4.59968C138.047 3.95995 134.136 3.39209 130.11 2.90979L129.991 3.9027ZM153.253 7.83139C157.225 8.7032 161.042 9.64764 164.702 10.6452L164.965 9.68039C161.289 8.67856 157.456 7.73011 153.467 6.85465L153.253 7.83139ZM176.02 14.0442C179.945 15.3347 183.644 16.6701 187.11 18.0179L187.472 17.0859C183.991 15.7319 180.275 14.3904 176.332 13.0942L176.02 14.0442ZM197.978 22.5964C201.96 24.4088 205.499 26.1761 208.58 27.817L209.05 26.9344C205.951 25.2842 202.394 23.5076 198.393 21.6863L197.978 22.5964ZM218.776 33.7335C220.375 34.7517 221.585 35.5742 222.393 36.1412C222.797 36.4247 223.101 36.6443 223.303 36.7926C223.404 36.8667 223.48 36.923 223.53 36.9605C223.555 36.9792 223.574 36.9933 223.586 37.0025C223.592 37.0071 223.597 37.0106 223.599 37.0128C223.601 37.0139 223.602 37.0147 223.603 37.0152C223.603 37.0154 223.603 37.0156 223.603 37.0157C223.603 37.0157 223.603 37.0157 223.603 37.0157C223.603 37.0157 223.603 37.0157 223.603 37.0157C223.603 37.0157 223.603 37.0157 223.907 36.6185C224.211 36.2213 224.211 36.2213 224.211 36.2212C224.211 36.2212 224.21 36.2212 224.21 36.2211C224.21 36.2211 224.21 36.221 224.21 36.2209C224.21 36.2206 224.209 36.2204 224.209 36.22C224.208 36.2192 224.207 36.2182 224.205 36.2168C224.201 36.2141 224.196 36.2102 224.189 36.2051C224.176 36.1949 224.156 36.1798 224.129 36.1601C224.077 36.1206 223.998 36.0623 223.894 35.9861C223.687 35.8338 223.377 35.6102 222.967 35.3226C222.147 34.7474 220.925 33.9165 219.313 32.8899L218.776 33.7335ZM112.363 1.91757L112.412 0.918775L112.363 1.91757ZM224.039 37.6097C224.587 37.5367 224.971 37.0337 224.898 36.4862L223.708 27.5653C223.635 27.0179 223.132 26.6333 222.584 26.7064C222.037 26.7794 221.652 27.2824 221.725 27.8298L222.783 35.7595L214.854 36.8177C214.306 36.8908 213.922 37.3938 213.995 37.9412C214.068 38.4886 214.571 38.8732 215.118 38.8001L224.039 37.6097ZM0.999997 36.4975C1.68332 37.2276 1.68326 37.2277 1.68321 37.2278C1.6832 37.2278 1.68315 37.2278 1.68313 37.2278C1.68309 37.2279 1.68308 37.2279 1.68309 37.2279C1.68311 37.2278 1.68322 37.2277 1.68343 37.2275C1.68385 37.2271 1.68465 37.2264 1.68582 37.2253C1.68817 37.2231 1.69204 37.2195 1.69741 37.2146C1.70816 37.2046 1.72495 37.1891 1.74776 37.1683C1.79339 37.1265 1.86311 37.0632 1.95677 36.9795C2.14408 36.8121 2.42713 36.5631 2.80468 36.2418C3.55978 35.5991 4.69274 34.6673 6.1936 33.5207L4.97939 31.9314C3.44908 33.1006 2.28879 34.0546 1.50843 34.7187C1.11825 35.0508 0.823021 35.3104 0.62399 35.4883C0.524474 35.5772 0.449003 35.6457 0.397734 35.6927C0.3721 35.7161 0.352515 35.7342 0.338999 35.7467C0.332242 35.7529 0.327001 35.7578 0.32328 35.7613C0.32142 35.763 0.319939 35.7644 0.318839 35.7654C0.318289 35.7659 0.317834 35.7663 0.317474 35.7667C0.317294 35.7668 0.317138 35.767 0.317005 35.7671C0.316939 35.7672 0.316857 35.7672 0.316824 35.7673C0.316749 35.7673 0.316679 35.7674 0.999997 36.4975ZM15.9497 26.8148C18.9347 24.9564 22.3725 22.9718 26.2485 20.9692L25.3305 19.1923C21.4042 21.2209 17.9201 23.2322 14.8926 25.117L15.9497 26.8148ZM36.9769 15.9307C40.4298 14.4639 44.1222 13.0382 48.0478 11.6993L47.4022 9.80632C43.4286 11.1616 39.6908 12.6048 36.1949 14.09L36.9769 15.9307ZM59.4054 8.27673C63.0998 7.30633 66.9588 6.42868 70.9785 5.67174L70.6084 3.70628C66.5411 4.47217 62.6361 5.36028 58.8973 6.34235L59.4054 8.27673ZM82.6935 3.88554C86.5106 3.43795 90.4509 3.10517 94.5117 2.90653L94.414 0.90892C90.3073 1.1098 86.322 1.44637 82.4606 1.89914L82.6935 3.88554ZM106.378 2.71968C108.332 2.75294 110.311 2.81789 112.314 2.91636L112.412 0.918775C110.388 0.819245 108.387 0.753589 106.412 0.719967L106.378 2.71968ZM112.314 2.91636C114.3 3.01398 116.262 3.13357 118.2 3.27382L118.345 1.27903C116.391 1.13768 114.414 1.01715 112.412 0.918775L112.314 2.91636ZM129.931 4.39915C133.934 4.87855 137.821 5.44296 141.589 6.07878L141.922 4.10665C138.122 3.46561 134.204 2.89661 130.169 2.41334L129.931 4.39915ZM153.146 8.31976C157.109 9.18974 160.918 10.1322 164.57 11.1276L165.096 9.19799C161.413 8.19402 157.571 7.24357 153.575 6.36627L153.146 8.31976ZM175.864 14.5192C179.781 15.8068 183.471 17.1392 186.929 18.4839L187.654 16.6198C184.164 15.2627 180.44 13.9183 176.488 12.6192L175.864 14.5192ZM197.771 23.0515C201.743 24.8594 205.272 26.6221 208.345 28.2583L209.285 26.493C206.177 24.8382 202.611 23.0571 198.6 21.2312L197.771 23.0515ZM218.507 34.1553C220.1 35.1693 221.303 35.9877 222.106 36.5506C222.507 36.832 222.808 37.0496 223.008 37.1958C223.107 37.2689 223.182 37.3242 223.23 37.3607C223.255 37.3789 223.273 37.3925 223.284 37.4012C223.29 37.4056 223.294 37.4088 223.297 37.4107C223.298 37.4117 223.299 37.4124 223.299 37.4127C223.3 37.4129 223.3 37.413 223.3 37.4131C223.3 37.4131 223.3 37.4131 223.3 37.413C223.3 37.413 223.3 37.413 223.3 37.413C223.3 37.413 223.3 37.4129 223.907 36.6185C224.514 35.8241 224.514 35.824 224.514 35.824C224.514 35.8239 224.514 35.8239 224.514 35.8238C224.514 35.8237 224.514 35.8236 224.514 35.8235C224.513 35.8232 224.513 35.8228 224.512 35.8224C224.511 35.8215 224.509 35.8204 224.508 35.8189C224.504 35.8159 224.498 35.8118 224.491 35.8064C224.477 35.7957 224.456 35.7801 224.429 35.7599C224.375 35.7194 224.295 35.6601 224.19 35.5829C223.98 35.4286 223.667 35.2029 223.254 34.9132C222.428 34.3339 221.2 33.4989 219.581 32.4681L218.507 34.1553Z" fill="#A5B4CB"/>
</svg>
