<svg width="883" height="253" viewBox="0 0 883 253" fill="none" xmlns="http://www.w3.org/2000/svg">
<path d="M112.414 27.9176L112.438 27.4182L112.414 27.9176ZM224.024 63.1141C224.297 63.0776 224.489 62.8261 224.453 62.5524L223.858 58.0919C223.821 57.8182 223.57 57.6259 223.296 57.6624C223.022 57.6989 222.83 57.9504 222.867 58.2242L223.396 62.189L219.431 62.7181C219.157 62.7546 218.965 63.0061 219.001 63.2798C219.038 63.5536 219.289 63.7458 219.563 63.7093L224.024 63.1141ZM1.05041 62.4975C1.39207 62.8626 1.39205 62.8626 1.39203 62.8626C1.39203 62.8626 1.39201 62.8626 1.39201 62.8626C1.39202 62.8626 1.39205 62.8626 1.3921 62.8626C1.39221 62.8625 1.39241 62.8623 1.3927 62.862C1.39329 62.8615 1.39426 62.8606 1.3956 62.8593C1.39829 62.8568 1.4025 62.8529 1.40822 62.8476C1.41966 62.837 1.43715 62.8209 1.46067 62.7994C1.50771 62.7563 1.57887 62.6917 1.67399 62.6067C1.86423 62.4367 2.15033 62.185 2.53103 61.861C3.29245 61.213 4.43224 60.2757 5.94046 59.1233L5.33336 58.3287C3.81041 59.4923 2.65695 60.4407 1.88291 61.0995C1.49589 61.4289 1.2037 61.6858 1.0076 61.8611C0.909547 61.9487 0.835515 62.0159 0.785656 62.0616C0.760726 62.0844 0.74184 62.1018 0.729017 62.1136C0.722605 62.1196 0.717709 62.1241 0.714331 62.1273C0.712642 62.1288 0.711332 62.1301 0.710402 62.1309C0.709938 62.1314 0.709568 62.1317 0.709293 62.132C0.709155 62.1321 0.709042 62.1322 0.708952 62.1323C0.708907 62.1323 0.708857 62.1324 0.708835 62.1324C0.708791 62.1324 0.708753 62.1325 1.05041 62.4975ZM15.7358 52.3904C18.7315 50.5254 22.1808 48.5341 26.0694 46.525L25.6104 45.6365C21.6967 47.6586 18.2242 49.6632 15.2073 51.5415L15.7358 52.3904ZM36.8318 41.4705C40.2955 39.9991 43.9992 38.569 47.9369 37.226L47.6141 36.2796C43.6524 37.6307 39.926 39.0696 36.4408 40.5502L36.8318 41.4705ZM59.3288 33.7931C63.0343 32.8198 66.9048 31.9395 70.9364 31.1804L70.7514 30.1976C66.6959 30.9613 62.8025 31.8468 59.0748 32.8259L59.3288 33.7931ZM82.6857 29.3889C86.5139 28.9401 90.4654 28.6063 94.5377 28.4071L94.4888 27.4083C90.3936 27.6086 86.4195 27.9443 82.5692 28.3957L82.6857 29.3889ZM106.437 28.2197C108.396 28.2531 110.381 28.3182 112.389 28.417L112.438 27.4182C110.419 27.3189 108.424 27.2534 106.454 27.2199L106.437 28.2197ZM112.389 28.417C114.379 28.5148 116.345 28.6346 118.287 28.7751L118.359 27.7777C116.409 27.6367 114.436 27.5164 112.438 27.4182L112.389 28.417ZM130.041 29.9027C134.052 30.3831 137.946 30.9486 141.723 31.5857L141.889 30.5997C138.097 29.9599 134.187 29.3921 130.16 28.9098L130.041 29.9027ZM153.303 33.8314C157.275 34.7032 161.092 35.6476 164.752 36.6452L165.015 35.6804C161.34 34.6786 157.506 33.7301 153.518 32.8546L153.303 33.8314ZM176.07 40.0442C179.996 41.3347 183.695 42.6701 187.16 44.0179L187.523 43.0859C184.041 41.7319 180.326 40.3904 176.383 39.0942L176.07 40.0442ZM198.029 48.5964C202.01 50.4088 205.549 52.1761 208.63 53.817L209.1 52.9344C206.002 51.2842 202.444 49.5076 198.443 47.6863L198.029 48.5964ZM218.826 59.7335C220.426 60.7517 221.635 61.5742 222.443 62.1412C222.848 62.4247 223.151 62.6443 223.354 62.7926C223.455 62.8667 223.53 62.923 223.58 62.9605C223.605 62.9792 223.624 62.9933 223.636 63.0025C223.642 63.0071 223.647 63.0106 223.65 63.0128C223.651 63.0139 223.652 63.0147 223.653 63.0152C223.653 63.0154 223.654 63.0156 223.654 63.0157C223.654 63.0157 223.654 63.0157 223.654 63.0157C223.654 63.0157 223.654 63.0157 223.654 63.0157C223.654 63.0157 223.654 63.0157 223.957 62.6185C224.261 62.2213 224.261 62.2212 224.261 62.2212C224.261 62.2212 224.261 62.2212 224.261 62.2211C224.261 62.2211 224.261 62.221 224.261 62.2209C224.26 62.2206 224.26 62.2204 224.259 62.22C224.258 62.2192 224.257 62.2182 224.255 62.2168C224.252 62.2141 224.247 62.2102 224.24 62.2051C224.226 62.1949 224.206 62.1798 224.18 62.1601C224.127 62.1206 224.049 62.0623 223.945 61.9861C223.737 61.8338 223.428 61.6102 223.018 61.3226C222.198 60.7474 220.976 59.9165 219.363 58.8899L218.826 59.7335ZM112.414 27.9176L112.463 26.9188L112.414 27.9176ZM224.09 63.6097C224.637 63.5367 225.022 63.0337 224.949 62.4862L223.758 53.5653C223.685 53.0179 223.182 52.6333 222.635 52.7064C222.087 52.7794 221.703 53.2824 221.776 53.8298L222.834 61.7595L214.904 62.8177C214.357 62.8908 213.972 63.3938 214.045 63.9412C214.118 64.4886 214.621 64.8732 215.169 64.8001L224.09 63.6097ZM1.05041 62.4975C1.73373 63.2277 1.73367 63.2277 1.73362 63.2278C1.73361 63.2278 1.73357 63.2278 1.73355 63.2278C1.73351 63.2279 1.73349 63.2279 1.7335 63.2279C1.73352 63.2278 1.73364 63.2277 1.73385 63.2275C1.73427 63.2272 1.73506 63.2264 1.73624 63.2253C1.73859 63.2231 1.74245 63.2195 1.74782 63.2146C1.75857 63.2046 1.77536 63.1891 1.79818 63.1683C1.8438 63.1265 1.91352 63.0632 2.00718 62.9795C2.1945 62.8121 2.47755 62.5631 2.85509 62.2418C3.61019 61.5991 4.74315 60.6673 6.24402 59.5207L5.02981 57.9314C3.49949 59.1006 2.3392 60.0546 1.55885 60.7187C1.16866 61.0508 0.873436 61.3104 0.674405 61.4883C0.574889 61.5772 0.499418 61.6457 0.448149 61.6927C0.422514 61.7161 0.40293 61.7342 0.389414 61.7467C0.382656 61.7529 0.377416 61.7578 0.373695 61.7613C0.371835 61.763 0.370354 61.7644 0.369254 61.7654C0.368704 61.7659 0.368249 61.7663 0.367889 61.7667C0.367709 61.7668 0.367553 61.767 0.36742 61.7671C0.367354 61.7672 0.367272 61.7672 0.367239 61.7673C0.367164 61.7673 0.367094 61.7674 1.05041 62.4975ZM16.0001 52.8148C18.9851 50.9564 22.4229 48.9718 26.299 46.9692L25.3809 45.1923C21.4547 47.2209 17.9705 49.2322 14.943 51.117L16.0001 52.8148ZM37.0273 41.9307C40.4802 40.4639 44.1726 39.0382 48.0983 37.6993L47.4526 35.8063C43.4791 37.1616 39.7412 38.6048 36.2453 40.09L37.0273 41.9307ZM59.4558 34.2767C63.1502 33.3063 67.0092 32.4287 71.0289 31.6717L70.6588 29.7063C66.5915 30.4722 62.6866 31.3603 58.9477 32.3423L59.4558 34.2767ZM82.7439 29.8855C86.561 29.438 90.5013 29.1052 94.5621 28.9065L94.4644 26.9089C90.3577 27.1098 86.3724 27.4464 82.511 27.8991L82.7439 29.8855ZM106.428 28.7197C108.382 28.7529 110.361 28.8179 112.365 28.9164L112.463 26.9188C110.438 26.8192 108.438 26.7536 106.462 26.72L106.428 28.7197ZM112.365 28.9164C114.35 29.014 116.313 29.1336 118.251 29.2738L118.395 27.279C116.442 27.1377 114.464 27.0172 112.463 26.9188L112.365 28.9164ZM129.982 30.3991C133.984 30.8786 137.871 31.443 141.639 32.0788L141.972 30.1067C138.173 29.4656 134.254 28.8966 130.22 28.4133L129.982 30.3991ZM153.196 34.3198C157.159 35.1897 160.969 36.1322 164.621 37.1276L165.147 35.198C161.463 34.194 157.622 33.2436 153.625 32.3663L153.196 34.3198ZM175.914 40.5192C179.831 41.8068 183.521 43.1392 186.979 44.4839L187.704 42.6198C184.214 41.2627 180.49 39.9183 176.539 38.6192L175.914 40.5192ZM197.822 49.0515C201.793 50.8594 205.323 52.6221 208.395 54.2583L209.335 52.493C206.228 50.8382 202.661 49.0571 198.65 47.2312L197.822 49.0515ZM218.558 60.1553C220.15 61.1693 221.354 61.9877 222.156 62.5506C222.558 62.832 222.859 63.0496 223.058 63.1958C223.158 63.2689 223.232 63.3242 223.281 63.3607C223.305 63.3789 223.323 63.3925 223.335 63.4012C223.34 63.4056 223.345 63.4088 223.347 63.4107C223.348 63.4117 223.349 63.4124 223.35 63.4127C223.35 63.4129 223.35 63.413 223.35 63.4131C223.35 63.4131 223.35 63.4131 223.35 63.413C223.35 63.413 223.35 63.413 223.35 63.413C223.35 63.413 223.35 63.4129 223.957 62.6185C224.565 61.8241 224.565 61.824 224.565 61.824C224.565 61.8239 224.564 61.8239 224.564 61.8238C224.564 61.8237 224.564 61.8236 224.564 61.8235C224.564 61.8232 224.563 61.8228 224.563 61.8224C224.561 61.8215 224.56 61.8204 224.558 61.8189C224.554 61.8159 224.549 61.8118 224.541 61.8064C224.527 61.7957 224.507 61.7801 224.48 61.7599C224.426 61.7193 224.346 61.6601 224.241 61.5829C224.03 61.4286 223.718 61.2029 223.305 60.9132C222.479 60.3339 221.251 59.4989 219.632 58.4681L218.558 60.1553Z" fill="#A5B4CB"/>
<path d="M450.046 220.045L449.993 219.548L450.046 220.045ZM558.158 174.952C558.434 174.953 558.657 175.178 558.656 175.454L558.639 179.954C558.638 180.23 558.413 180.453 558.137 180.452C557.861 180.451 557.638 180.226 557.639 179.95L557.654 175.95L553.654 175.935C553.378 175.934 553.155 175.709 553.156 175.433C553.157 175.157 553.382 174.934 553.658 174.935L558.158 174.952ZM334.078 186.727C334.412 186.355 334.412 186.355 334.412 186.355C334.412 186.355 334.412 186.355 334.412 186.355C334.412 186.355 334.412 186.355 334.412 186.355C334.412 186.355 334.413 186.355 334.413 186.356C334.414 186.356 334.415 186.357 334.416 186.358C334.419 186.361 334.424 186.365 334.43 186.37C334.442 186.381 334.461 186.398 334.486 186.42C334.536 186.464 334.611 186.53 334.712 186.617C334.914 186.792 335.218 187.049 335.62 187.38C336.424 188.042 337.624 188.999 339.203 190.173L338.606 190.975C337.014 189.791 335.8 188.824 334.984 188.152C334.576 187.816 334.267 187.554 334.06 187.375C333.956 187.285 333.877 187.217 333.825 187.17C333.798 187.147 333.778 187.129 333.765 187.117C333.758 187.111 333.753 187.107 333.749 187.103C333.747 187.102 333.746 187.101 333.745 187.1C333.745 187.099 333.744 187.099 333.744 187.099C333.744 187.099 333.744 187.098 333.744 187.098C333.743 187.098 333.743 187.098 333.743 187.098C333.743 187.098 333.743 187.098 334.078 186.727ZM349.444 197.049C352.578 198.96 356.174 200.995 360.206 203.037L359.755 203.929C355.697 201.875 352.078 199.826 348.923 197.903L349.444 197.049ZM371.419 208.189C375.042 209.69 378.906 211.137 382.999 212.478L382.687 213.428C378.57 212.079 374.682 210.623 371.036 209.113L371.419 208.189ZM394.85 215.867C398.723 216.816 402.757 217.651 406.945 218.34L406.783 219.327C402.569 218.634 398.509 217.793 394.612 216.839L394.85 215.867ZM419.19 219.869C423.181 220.211 427.288 220.411 431.508 220.447L431.5 221.447C427.254 221.411 423.12 221.209 419.104 220.865L419.19 219.869ZM443.842 220.08C445.87 219.942 447.921 219.766 449.993 219.548L450.098 220.542C448.013 220.762 445.95 220.939 443.909 221.077L443.842 220.08ZM449.993 219.548C451.984 219.338 453.948 219.105 455.886 218.849L456.017 219.841C454.07 220.097 452.098 220.332 450.098 220.542L449.993 219.548ZM467.597 216.989C471.588 216.245 475.45 215.411 479.185 214.501L479.421 215.473C475.67 216.387 471.789 217.225 467.781 217.972L467.597 216.989ZM490.611 211.379C494.52 210.193 498.264 208.931 501.841 207.618L502.186 208.557C498.591 209.876 494.829 211.144 490.902 212.336L490.611 211.379ZM512.854 203.206C516.659 201.55 520.228 199.856 523.559 198.16L524.013 199.051C520.664 200.756 517.077 202.459 513.253 204.123L512.854 203.206ZM533.94 192.457C537.713 190.225 541.047 188.067 543.935 186.076L544.503 186.899C541.596 188.903 538.243 191.073 534.45 193.318L533.94 192.457ZM553.403 178.97C554.87 177.762 555.972 176.792 556.707 176.124C557.074 175.791 557.35 175.533 557.533 175.359C557.624 175.272 557.693 175.206 557.738 175.162C557.76 175.14 557.777 175.124 557.788 175.113C557.794 175.107 557.798 175.103 557.8 175.101C557.802 175.099 557.803 175.099 557.803 175.098C557.803 175.098 557.804 175.098 557.804 175.097C557.804 175.097 557.804 175.097 557.804 175.097C557.804 175.097 557.804 175.097 557.804 175.097C557.804 175.097 557.804 175.097 558.156 175.452C558.508 175.807 558.508 175.807 558.508 175.807C558.508 175.807 558.508 175.807 558.508 175.807C558.508 175.807 558.508 175.808 558.508 175.808C558.507 175.808 558.507 175.808 558.507 175.809C558.506 175.81 558.505 175.811 558.503 175.812C558.5 175.816 558.495 175.82 558.489 175.826C558.477 175.838 558.459 175.856 558.435 175.879C558.387 175.926 558.316 175.994 558.222 176.084C558.033 176.263 557.752 176.526 557.379 176.865C556.633 177.542 555.518 178.524 554.039 179.742L553.403 178.97ZM450.046 220.045L449.941 219.05L450.046 220.045ZM558.16 174.452C558.712 174.454 559.158 174.904 559.156 175.456L559.122 184.456C559.12 185.008 558.67 185.454 558.118 185.452C557.566 185.45 557.12 185.001 557.122 184.448L557.152 176.448L549.152 176.418C548.6 176.416 548.154 175.966 548.156 175.414C548.158 174.862 548.608 174.416 549.16 174.418L558.16 174.452ZM334.078 186.727C334.747 185.983 334.747 185.983 334.747 185.983C334.747 185.983 334.747 185.983 334.747 185.983C334.746 185.983 334.746 185.983 334.747 185.983C334.747 185.983 334.747 185.983 334.747 185.983C334.747 185.984 334.748 185.985 334.75 185.986C334.752 185.988 334.756 185.992 334.762 185.997C334.774 186.007 334.792 186.023 334.816 186.045C334.865 186.088 334.939 186.153 335.039 186.239C335.238 186.41 335.538 186.665 335.937 186.994C336.736 187.651 337.93 188.603 339.501 189.771L338.308 191.376C336.708 190.187 335.489 189.215 334.666 188.538C334.255 188.2 333.943 187.935 333.733 187.754C333.628 187.663 333.548 187.593 333.494 187.545C333.467 187.522 333.446 187.503 333.432 187.491C333.425 187.484 333.42 187.479 333.416 187.476C333.414 187.474 333.412 187.473 333.411 187.472C333.41 187.471 333.41 187.471 333.41 187.471C333.409 187.47 333.409 187.47 333.409 187.47C333.409 187.47 333.409 187.47 333.409 187.47C333.409 187.47 333.409 187.47 334.078 186.727ZM349.704 196.622C352.828 198.527 356.413 200.555 360.432 202.591L359.529 204.376C355.459 202.314 351.828 200.26 348.663 198.329L349.704 196.622ZM371.61 207.727C375.223 209.223 379.075 210.666 383.154 212.003L382.531 213.903C378.401 212.55 374.502 211.089 370.845 209.575L371.61 207.727ZM394.969 215.382C398.83 216.328 402.851 217.16 407.026 217.847L406.702 219.82C402.474 219.125 398.402 218.282 394.493 217.324L394.969 215.382ZM419.232 219.371C423.211 219.712 427.306 219.911 431.512 219.947L431.496 221.947C427.237 221.911 423.09 221.709 419.062 221.364L419.232 219.371ZM443.808 219.581C445.83 219.444 447.875 219.268 449.941 219.05L450.15 221.039C448.059 221.259 445.99 221.438 443.943 221.576L443.808 219.581ZM449.941 219.05C451.927 218.841 453.887 218.608 455.821 218.354L456.082 220.337C454.131 220.594 452.154 220.828 450.15 221.039L449.941 219.05ZM467.506 216.497C471.487 215.755 475.341 214.923 479.066 214.015L479.54 215.959C475.779 216.874 471.89 217.715 467.872 218.464L467.506 216.497ZM490.466 210.901C494.365 209.717 498.1 208.459 501.669 207.149L502.358 209.026C498.755 210.349 494.984 211.619 491.047 212.815L490.466 210.901ZM512.655 202.747C516.45 201.096 520.009 199.406 523.332 197.714L524.239 199.496C520.882 201.206 517.286 202.913 513.453 204.581L512.655 202.747ZM533.686 192.027C537.448 189.801 540.772 187.649 543.651 185.664L544.787 187.31C541.871 189.321 538.508 191.497 534.704 193.748L533.686 192.027ZM553.086 178.584C554.545 177.382 555.642 176.417 556.371 175.754C556.735 175.423 557.008 175.168 557.188 174.996C557.279 174.911 557.346 174.846 557.389 174.803C557.411 174.782 557.428 174.766 557.438 174.756C557.443 174.751 557.447 174.747 557.449 174.745C557.45 174.744 557.451 174.743 557.451 174.743C557.452 174.742 557.452 174.742 557.452 174.742C557.452 174.742 557.452 174.742 557.452 174.742C557.452 174.742 557.452 174.742 557.452 174.742C557.452 174.742 557.452 174.742 558.156 175.452C558.86 176.162 558.86 176.162 558.86 176.162C558.86 176.162 558.86 176.162 558.86 176.162C558.86 176.162 558.86 176.163 558.86 176.163C558.859 176.163 558.859 176.164 558.858 176.164C558.857 176.165 558.856 176.167 558.854 176.168C558.851 176.172 558.846 176.177 558.839 176.183C558.826 176.196 558.808 176.214 558.783 176.238C558.734 176.285 558.662 176.355 558.566 176.446C558.375 176.627 558.092 176.893 557.716 177.235C556.964 177.918 555.843 178.904 554.357 180.128L553.086 178.584Z" fill="#A5B4CB"/>
<path d="M768.414 24.9176L768.438 24.4182L768.414 24.9176ZM880.024 60.1141C880.297 60.0776 880.489 59.8261 880.453 59.5524L879.858 55.0919C879.821 54.8182 879.57 54.6259 879.296 54.6624C879.022 54.6989 878.83 54.9504 878.867 55.2242L879.396 59.189L875.431 59.7181C875.157 59.7546 874.965 60.0061 875.001 60.2798C875.038 60.5536 875.289 60.7458 875.563 60.7093L880.024 60.1141ZM657.05 59.4975C657.392 59.8626 657.392 59.8626 657.392 59.8626C657.392 59.8626 657.392 59.8626 657.392 59.8626C657.392 59.8626 657.392 59.8626 657.392 59.8626C657.392 59.8625 657.392 59.8623 657.393 59.862C657.393 59.8615 657.394 59.8606 657.396 59.8593C657.398 59.8568 657.403 59.8529 657.408 59.8476C657.42 59.837 657.437 59.8209 657.461 59.7994C657.508 59.7563 657.579 59.6917 657.674 59.6067C657.864 59.4367 658.15 59.185 658.531 58.861C659.292 58.213 660.432 57.2757 661.94 56.1233L661.333 55.3287C659.81 56.4923 658.657 57.4407 657.883 58.0995C657.496 58.4289 657.204 58.6858 657.008 58.8611C656.91 58.9487 656.836 59.0159 656.786 59.0616C656.761 59.0844 656.742 59.1018 656.729 59.1136C656.723 59.1196 656.718 59.1241 656.714 59.1273C656.713 59.1288 656.711 59.1301 656.71 59.1309C656.71 59.1314 656.71 59.1317 656.709 59.132C656.709 59.1321 656.709 59.1322 656.709 59.1323C656.709 59.1323 656.709 59.1324 656.709 59.1324C656.709 59.1324 656.709 59.1325 657.05 59.4975ZM671.736 49.3904C674.731 47.5254 678.181 45.5341 682.069 43.525L681.61 42.6365C677.697 44.6586 674.224 46.6632 671.207 48.5415L671.736 49.3904ZM692.832 38.4705C696.295 36.9991 699.999 35.569 703.937 34.226L703.614 33.2796C699.652 34.6307 695.926 36.0696 692.441 37.5502L692.832 38.4705ZM715.329 30.7931C719.034 29.8198 722.905 28.9396 726.936 28.1804L726.751 27.1976C722.696 27.9613 718.802 28.8468 715.075 29.8259L715.329 30.7931ZM738.686 26.3889C742.514 25.9401 746.465 25.6063 750.538 25.4071L750.489 24.4083C746.394 24.6086 742.42 24.9443 738.569 25.3957L738.686 26.3889ZM762.437 25.2197C764.396 25.2531 766.381 25.3182 768.389 25.417L768.438 24.4182C766.419 24.3189 764.424 24.2534 762.454 24.2199L762.437 25.2197ZM768.389 25.417C770.379 25.5148 772.345 25.6346 774.287 25.7751L774.359 24.7777C772.409 24.6367 770.436 24.5164 768.438 24.4182L768.389 25.417ZM786.041 26.9027C790.052 27.3831 793.946 27.9486 797.723 28.5857L797.889 27.5997C794.097 26.9599 790.187 26.3921 786.16 25.9098L786.041 26.9027ZM809.303 30.8314C813.275 31.7032 817.092 32.6476 820.752 33.6452L821.015 32.6804C817.34 31.6786 813.506 30.7301 809.518 29.8546L809.303 30.8314ZM832.07 37.0442C835.996 38.3347 839.695 39.6701 843.16 41.0179L843.523 40.0859C840.041 38.7319 836.326 37.3904 832.383 36.0942L832.07 37.0442ZM854.029 45.5964C858.01 47.4088 861.549 49.1761 864.63 50.817L865.1 49.9344C862.002 48.2842 858.444 46.5076 854.443 44.6863L854.029 45.5964ZM874.826 56.7335C876.426 57.7517 877.635 58.5742 878.443 59.1412C878.848 59.4247 879.151 59.6443 879.354 59.7926C879.455 59.8667 879.53 59.923 879.58 59.9605C879.605 59.9792 879.624 59.9933 879.636 60.0025C879.642 60.0071 879.647 60.0106 879.65 60.0128C879.651 60.0139 879.652 60.0147 879.653 60.0152C879.653 60.0154 879.654 60.0156 879.654 60.0157C879.654 60.0157 879.654 60.0157 879.654 60.0157C879.654 60.0157 879.654 60.0157 879.654 60.0157C879.654 60.0157 879.654 60.0157 879.957 59.6185C880.261 59.2213 880.261 59.2213 880.261 59.2212C880.261 59.2212 880.261 59.2212 880.261 59.2211C880.261 59.2211 880.261 59.221 880.261 59.2209C880.26 59.2206 880.26 59.2204 880.259 59.22C880.258 59.2192 880.257 59.2182 880.255 59.2168C880.252 59.2141 880.247 59.2102 880.24 59.2051C880.226 59.1949 880.206 59.1798 880.18 59.1601C880.127 59.1206 880.049 59.0623 879.945 58.9861C879.737 58.8338 879.428 58.6102 879.018 58.3226C878.198 57.7474 876.976 56.9165 875.363 55.8899L874.826 56.7335ZM768.414 24.9176L768.463 23.9188L768.414 24.9176ZM880.09 60.6097C880.637 60.5367 881.022 60.0337 880.949 59.4862L879.758 50.5653C879.685 50.0179 879.182 49.6333 878.635 49.7064C878.087 49.7794 877.703 50.2824 877.776 50.8298L878.834 58.7595L870.904 59.8177C870.357 59.8908 869.972 60.3938 870.045 60.9412C870.118 61.4886 870.621 61.8732 871.169 61.8001L880.09 60.6097ZM657.05 59.4975C657.734 60.2276 657.734 60.2277 657.734 60.2278C657.734 60.2278 657.734 60.2278 657.734 60.2278C657.734 60.2279 657.733 60.2279 657.734 60.2279C657.734 60.2278 657.734 60.2277 657.734 60.2275C657.734 60.2271 657.735 60.2264 657.736 60.2253C657.739 60.2231 657.742 60.2195 657.748 60.2146C657.759 60.2046 657.775 60.1891 657.798 60.1683C657.844 60.1265 657.914 60.0632 658.007 59.9795C658.194 59.8121 658.478 59.5631 658.855 59.2418C659.61 58.5991 660.743 57.6673 662.244 56.5207L661.03 54.9314C659.499 56.1006 658.339 57.0546 657.559 57.7187C657.169 58.0508 656.873 58.3104 656.674 58.4883C656.575 58.5772 656.499 58.6457 656.448 58.6927C656.423 58.7161 656.403 58.7342 656.389 58.7467C656.383 58.7529 656.377 58.7578 656.374 58.7613C656.372 58.763 656.37 58.7644 656.369 58.7654C656.369 58.7659 656.368 58.7663 656.368 58.7667C656.368 58.7668 656.368 58.767 656.367 58.7671C656.367 58.7672 656.367 58.7672 656.367 58.7673C656.367 58.7673 656.367 58.7674 657.05 59.4975ZM672 49.8148C674.985 47.9564 678.423 45.9718 682.299 43.9692L681.381 42.1923C677.455 44.2209 673.971 46.2322 670.943 48.117L672 49.8148ZM693.027 38.9307C696.48 37.4639 700.173 36.0382 704.098 34.6993L703.453 32.8063C699.479 34.1616 695.741 35.6048 692.245 37.09L693.027 38.9307ZM715.456 31.2767C719.15 30.3063 723.009 29.4287 727.029 28.6717L726.659 26.7063C722.592 27.4722 718.687 28.3603 714.948 29.3423L715.456 31.2767ZM738.744 26.8855C742.561 26.438 746.501 26.1052 750.562 25.9065L750.464 23.9089C746.358 24.1098 742.372 24.4464 738.511 24.8991L738.744 26.8855ZM762.428 25.7197C764.382 25.7529 766.361 25.8179 768.365 25.9164L768.463 23.9188C766.438 23.8192 764.438 23.7536 762.462 23.72L762.428 25.7197ZM768.365 25.9164C770.35 26.014 772.313 26.1336 774.251 26.2738L774.395 24.279C772.442 24.1377 770.464 24.0172 768.463 23.9188L768.365 25.9164ZM785.982 27.3991C789.984 27.8786 793.871 28.443 797.639 29.0788L797.972 27.1066C794.173 26.4656 790.254 25.8966 786.22 25.4133L785.982 27.3991ZM809.196 31.3198C813.159 32.1897 816.969 33.1322 820.621 34.1276L821.147 32.198C817.463 31.194 813.622 30.2436 809.625 29.3663L809.196 31.3198ZM831.914 37.5192C835.831 38.8068 839.521 40.1392 842.979 41.4839L843.704 39.6198C840.214 38.2627 836.49 36.9183 832.539 35.6192L831.914 37.5192ZM853.822 46.0515C857.793 47.8594 861.323 49.6221 864.395 51.2583L865.335 49.493C862.228 47.8382 858.661 46.0571 854.65 44.2312L853.822 46.0515ZM874.558 57.1553C876.15 58.1693 877.354 58.9877 878.156 59.5506C878.558 59.832 878.859 60.0496 879.058 60.1958C879.158 60.2689 879.232 60.3242 879.281 60.3607C879.305 60.3789 879.323 60.3925 879.335 60.4012C879.34 60.4056 879.345 60.4088 879.347 60.4107C879.348 60.4117 879.349 60.4124 879.35 60.4127C879.35 60.4129 879.35 60.413 879.35 60.4131C879.35 60.4131 879.35 60.4131 879.35 60.413C879.35 60.413 879.35 60.413 879.35 60.413C879.35 60.413 879.35 60.4129 879.957 59.6185C880.565 58.8241 880.565 58.824 880.565 58.824C880.565 58.8239 880.564 58.8239 880.564 58.8238C880.564 58.8237 880.564 58.8236 880.564 58.8235C880.564 58.8232 880.563 58.8228 880.563 58.8224C880.561 58.8215 880.56 58.8204 880.558 58.8189C880.554 58.8159 880.549 58.8118 880.541 58.8064C880.527 58.7957 880.507 58.7801 880.48 58.7599C880.426 58.7194 880.346 58.6601 880.241 58.5829C880.03 58.4286 879.718 58.2029 879.305 57.9132C878.479 57.3339 877.251 56.4989 875.632 55.4681L874.558 57.1553Z" fill="#A5B4CB"/>
</svg>
