<svg width="24" height="24" viewBox="0 0 24 24" fill="none" xmlns="http://www.w3.org/2000/svg">
<path d="M11.9697 22C17.4927 22 21.9697 17.523 21.9697 12C21.9697 6.477 17.4927 2 11.9697 2C6.44673 2 1.96973 6.477 1.96973 12C1.96973 17.523 6.44673 22 11.9697 22V22Z" stroke="#FF8F65" stroke-width="1.5" stroke-linecap="round" stroke-linejoin="round"/>
<path d="M4.90039 4.93018L8.44039 8.46018M4.90039 19.0702L8.44039 15.5402M19.0504 19.0702L15.5104 15.5402M19.0504 4.93018L15.5104 8.46018M12.0004 16.5002C13.1939 16.5002 14.3385 16.0261 15.1824 15.1822C16.0263 14.3382 16.5004 13.1937 16.5004 12.0002C16.5004 10.8067 16.0263 9.66211 15.1824 8.8182C14.3385 7.97428 13.1939 7.50018 12.0004 7.50018C10.8069 7.50018 9.66232 7.97428 8.81841 8.8182C7.9745 9.66211 7.50039 10.8067 7.50039 12.0002C7.50039 13.1937 7.9745 14.3382 8.81841 15.1822C9.66232 16.0261 10.8069 16.5002 12.0004 16.5002V16.5002Z" stroke="#FF8F65" stroke-width="1.5" stroke-linecap="round" stroke-linejoin="round"/>
</svg>
